<svg id="SvgjsSvg1056" width="288" height="288" xmlns="http://www.w3.org/2000/svg" version="1.1" xmlns:xlink="http://www.w3.org/1999/xlink" xmlns:svgjs="http://svgjs.com/svgjs"><defs id="SvgjsDefs1057"></defs><g id="SvgjsG1058"><svg xmlns="http://www.w3.org/2000/svg" viewBox="0 0 1792 1792" width="288" height="288"><path d="M1792 1344v128q0 26-19 45t-45 19H64q-26 0-45-19t-19-45v-128q0-26 19-45t45-19h1664q26 0 45 19t19 45zm-384-384v128q0 26-19 45t-45 19H448q-26 0-45-19t-19-45V960q0-26 19-45t45-19h896q26 0 45 19t19 45zm256-384v128q0 26-19 45t-45 19H192q-26 0-45-19t-19-45V576q0-26 19-45t45-19h1408q26 0 45 19t19 45zm-384-384v128q0 26-19 45t-45 19H576q-26 0-45-19t-19-45V192q0-26 19-45t45-19h640q26 0 45 19t19 45z" fill="#ff0000" class="color000 svgShape"></path></svg></g></svg>